PathFileType	4	(X/Y/Z)	c:/Users/goper/Files/vsCode/490R/osim_files/C05/C05_Static.trc
DataRate	CameraRate	NumFrames	NumMarkers	Units                	OrigDataRate	OrigDataStartFrame	OrigNumFrames
250.00	250.00	8	36	mm	250.0	1151	1840
                Frame#	Time	LPSIS			LASIS			LTH1			LTH2			LTH3			LTH4			LLFE			LMFE			LSH1			LSH2			LSH3			LSH4			LLMAL			LMMAL			LCAL			LMTP5			LTOE			LMTP1			RPSIS			RASIS			RTH1			RTH2			RTH3			RTH4			RLFE			RMFE			RSH1			RSH2			RSH3			RSH4			RLMAL			RMMAL			RCAL			RMTP1			RTOE			RMTP5		
		X1	Y1	Z1	X2	Y2	Z2	X3	Y3	Z3	X4	Y4	Z4	X5	Y5	Z5	X6	Y6	Z6	X7	Y7	Z7	X8	Y8	Z8	X9	Y9	Z9	X10	Y10	Z10	X11	Y11	Z11	X12	Y12	Z12	X13	Y13	Z13	X14	Y14	Z14	X15	Y15	Z15	X16	Y16	Z16	X17	Y17	Z17	X18	Y18	Z18	X19	Y19	Z19	X20	Y20	Z20	X21	Y21	Z21	X22	Y22	Z22	X23	Y23	Z23	X24	Y24	Z24	X25	Y25	Z25	X26	Y26	Z26	X27	Y27	Z27	X28	Y28	Z28	X29	Y29	Z29	X30	Y30	Z30	X31	Y31	Z31	X32	Y32	Z32	X33	Y33	Z33	X34	Y34	Z34	X35	Y35	Z35	X36	Y36	Z36

1151	4.60000	-422.57263	1062.96985	413.63544	-229.98781	1023.14636	348.79199	-370.93729	714.54431	280.76575	-366.64728	651.70728	283.53741	-294.32724	713.06500	276.68835	-299.81198	651.80676	280.50583	-333.41327	542.79736	290.57474	-335.15613	522.11627	408.20459	-436.02899	370.52835	277.33939	-431.62473	326.68610	277.71509	-374.38144	370.68881	258.40286	-379.92108	327.57346	262.36786	-396.21957	97.20779	287.55914	-359.88608	108.25600	367.54501	-447.77869	68.45562	343.30563	-262.07425	40.86271	237.88701	-216.86035	65.06721	292.74088	-224.18784	45.54435	341.52667	-415.26199	1067.57654	521.28418	-222.50113	1025.84851	580.32397	-360.67294	717.07178	658.28442	-361.52328	654.06104	655.08667	-286.01498	710.13116	663.77875	-297.18845	648.00970	660.48743	-314.93619	535.29523	645.20129	-341.31250	507.16824	541.32825	-400.36227	386.63184	681.52075	-396.55624	338.33844	679.23132	-340.26932	382.30185	673.75830	-345.36108	335.89584	672.59686	-376.98257	96.32050	649.07764	-364.48309	109.39866	564.15253	-445.39255	68.45993	608.14752	-232.72830	40.75212	557.82336	-207.07158	63.79715	603.38586	-249.70644	33.97080	672.66516
1152	4.60400	-422.56888	1062.98584	413.60315	-230.02060	1023.15741	348.80692	-371.02893	714.45001	280.66891	-366.67178	651.67841	283.54843	-294.32004	713.09900	276.69348	-299.78748	651.83160	280.50195	-333.41763	542.82294	290.57199	-335.21875	522.14716	408.20547	-436.01724	370.52023	277.32233	-431.62106	326.63330	277.72928	-374.35449	370.72748	258.40707	-379.93393	327.58072	262.37537	-396.20734	97.22271	287.54187	-359.91861	108.26447	367.56168	-447.79474	68.47482	343.31656	-262.11581	40.84322	237.88617	-216.88359	65.08760	292.75549	-224.29839	45.50059	341.55527	-415.31351	1067.62256	521.27960	-222.55998	1025.85095	580.34454	-360.71933	717.09912	658.28223	-361.58878	654.07141	655.08813	-286.08908	710.14343	663.78827	-297.25522	648.05347	660.50916	-314.97409	535.29755	645.21069	-341.35416	507.18506	541.32874	-400.38583	386.65646	681.54907	-396.59744	338.35919	679.23859	-340.31573	382.30811	673.77728	-345.38519	335.90802	672.61206	-377.03738	96.35336	649.07343	-364.47421	109.42508	564.17285	-445.41559	68.49081	608.14111	-232.72275	40.76719	557.82452	-207.06009	63.81725	603.37848	-249.75496	33.97375	672.68970
1153	4.60800	-422.58621	1063.01550	413.60873	-230.05394	1023.17719	348.82358	-371.08493	714.46106	280.70197	-366.67636	651.71667	283.54147	-294.32770	713.13367	276.68637	-299.79315	651.88660	280.51682	-333.42300	542.86176	290.57932	-335.22855	522.16986	408.21591	-436.03424	370.54807	277.32440	-431.63821	326.67569	277.72989	-374.36475	370.75876	258.39450	-379.95544	327.60345	262.37347	-396.21927	97.26095	287.55753	-359.91562	108.28099	367.56293	-447.85388	68.52863	343.30847	-262.13205	40.86976	237.90622	-216.91197	65.11041	292.75555	-224.29695	45.54435	341.53461	-415.36011	1067.64526	521.28302	-222.59283	1025.88440	580.36530	-360.74030	717.13159	658.30292	-361.65863	654.12286	655.11591	-286.18201	710.15125	663.77155	-297.32587	648.05762	660.51495	-314.99756	535.34528	645.22174	-341.35782	507.21774	541.28595	-400.42545	386.69519	681.55841	-396.65259	338.39258	679.23669	-340.35306	382.32944	673.79395	-345.43210	335.92783	672.62830	-377.06183	96.39025	649.08417	-364.49777	109.44702	564.16632	-445.41412	68.50985	608.15356	-232.72179	40.82171	557.83099	-207.05722	63.86569	603.38416	-249.76489	34.00257	672.69324
1154	4.61200	-422.60516	1063.02637	413.61572	-230.05399	1023.18982	348.83218	-370.90454	714.56445	280.77524	-366.67612	651.72723	283.53448	-294.35022	713.14661	276.70151	-299.80609	651.92041	280.52103	-333.40485	542.88983	290.56992	-335.25546	522.20374	408.20914	-436.00787	370.55392	277.32336	-431.64905	326.64978	277.77042	-374.35583	370.78885	258.40674	-379.95224	327.62955	262.37793	-396.22101	97.28388	287.56061	-359.93594	108.30020	367.56689	-447.80399	68.52278	343.32996	-262.11264	40.90672	237.90891	-216.91365	65.11692	292.75247	-224.16277	45.49470	341.46820	-415.36847	1067.66956	521.29553	-222.59439	1025.89026	580.37262	-360.73669	717.15027	658.30188	-361.63266	654.15265	655.10468	-286.15945	710.17987	663.77496	-297.33566	648.08356	660.52332	-315.00482	535.34424	645.21857	-341.37589	507.20355	541.32263	-400.45163	386.70950	681.54218	-396.64572	338.43274	679.22308	-340.33325	382.35330	673.78320	-345.45081	335.93524	672.61365	-377.06732	96.43333	649.08057	-364.49551	109.47382	564.15826	-445.40726	68.51846	608.14276	-232.71962	40.83838	557.82788	-207.07185	63.88176	603.37219	-249.76138	34.01729	672.69531
1155	4.61600	-422.61813	1063.02368	413.61270	-230.04567	1023.22229	348.83609	-371.08786	714.49249	280.70862	-366.66986	651.75067	283.56100	-294.32596	713.15613	276.71713	-299.83917	651.90692	280.51822	-333.43820	542.89465	290.57513	-335.26819	522.23151	408.21503	-436.04425	370.57358	277.34790	-431.62451	326.66769	277.75250	-374.37799	370.80048	258.41766	-379.97284	327.66382	262.37830	-396.22568	97.28952	287.57306	-359.91724	108.32627	367.55646	-447.75800	68.50478	343.33368	-262.08881	40.93706	237.88173	-216.88287	65.16075	292.75345	-224.03107	45.52431	341.38162	-415.34326	1067.64600	521.29272	-222.59760	1025.91711	580.37646	-360.71408	717.14648	658.28802	-361.61914	654.13184	655.11176	-286.14017	710.21057	663.80450	-297.29739	648.12286	660.53363	-315.00165	535.36206	645.22260	-341.43610	507.18082	541.36115	-400.42767	386.73407	681.54169	-396.58569	338.42349	679.24554	-340.33511	382.35294	673.78723	-345.40070	335.96127	672.60828	-377.03937	96.45145	649.08032	-364.48489	109.49528	564.16785	-445.40027	68.53875	608.16956	-232.70984	40.87350	557.85022	-207.07278	63.88780	603.38763	-249.74115	34.04012	672.69141
1156	4.62000	-422.61249	1062.98853	413.62540	-230.04424	1023.23523	348.84360	-371.09299	714.48395	280.72620	-366.65491	651.74463	283.57343	-294.33838	713.17596	276.73309	-299.84341	651.90424	280.54770	-333.44354	542.87903	290.58759	-335.27563	522.24963	408.24084	-436.03506	370.55273	277.35300	-431.65460	326.66187	277.78888	-374.38477	370.78812	258.43176	-379.97775	327.67807	262.39291	-396.24609	97.29293	287.57556	-359.92059	108.30251	367.57104	-447.73300	68.46810	343.31989	-262.10229	40.94653	237.90326	-216.88475	65.15729	292.76971	-224.11861	45.40576	341.45490	-415.34338	1067.59082	521.30151	-222.58496	1025.94519	580.38892	-360.70953	717.10461	658.29602	-361.57773	654.12506	655.11859	-286.09589	710.23346	663.80981	-297.28888	648.13354	660.53833	-314.99939	535.35535	645.22821	-341.47223	507.19128	541.36505	-400.43167	386.74371	681.55634	-396.58362	338.39618	679.24872	-340.33444	382.34439	673.81134	-345.40811	335.95490	672.63397	-377.03192	96.45087	649.08588	-364.48911	109.49883	564.17914	-445.39557	68.55315	608.20264	-232.72272	40.87778	557.86237	-207.09479	63.89303	603.42322	-249.74916	34.05438	672.71912
1157	4.62400	-422.62909	1062.96790	413.65063	-230.05013	1023.23560	348.84140	-370.98035	714.59015	280.80707	-366.69034	651.76343	283.58548	-294.35745	713.18091	276.74368	-299.87549	651.90289	280.54321	-333.49631	542.86908	290.59491	-335.28766	522.25519	408.24728	-436.07022	370.56085	277.37299	-431.64618	326.68369	277.78113	-374.42386	370.77603	258.43549	-379.96207	327.68338	262.40216	-396.25616	97.29595	287.57504	-359.91727	108.30125	367.56833	-447.77151	68.45631	343.34857	-262.12042	40.93462	237.90965	-216.90857	65.15806	292.77811	-224.23854	45.44475	341.53946	-415.36951	1067.59607	521.29993	-222.61610	1025.92981	580.39581	-360.71338	717.09259	658.30444	-361.60464	654.09192	655.14575	-286.16428	710.21613	663.83636	-297.34027	648.11877	660.55951	-315.03690	535.33569	645.25079	-341.43106	507.25009	541.33478	-400.42395	386.72009	681.57117	-396.59802	338.37173	679.25311	-340.36160	382.34180	673.79517	-345.45724	335.93671	672.62244	-377.05441	96.43387	649.11420	-364.51929	109.50069	564.17267	-445.43674	68.56046	608.20880	-232.74840	40.88934	557.85870	-207.11140	63.88288	603.42627	-249.86021	33.88430	672.57904
1158	4.62800	-422.63223	1062.94458	413.66830	-230.08620	1023.23633	348.86203	-370.96225	714.58746	280.80157	-366.68991	651.75714	283.59766	-294.39801	713.14240	276.72787	-299.87762	651.90063	280.55014	-333.50150	542.85541	290.59570	-335.28784	522.24298	408.24625	-436.04483	370.55444	277.38083	-430.50894	327.46771	276.78967	-374.43872	370.77234	258.44662	-379.97989	327.68564	262.40961	-396.29877	97.27234	287.60623	-359.94421	108.28776	367.59695	-447.79715	68.44558	343.34848	-262.13275	40.93167	237.94084	-216.92830	65.15100	292.81058	-223.93755	45.65310	341.65613	-415.35858	1067.55566	521.32690	-222.66507	1025.93066	580.41925	-360.74561	717.07404	658.30414	-361.64056	654.07355	655.14075	-286.22391	710.21155	663.85449	-297.36667	648.12939	660.58276	-315.06689	535.31415	645.26318	-341.39883	507.29568	541.30682	-400.49298	386.72217	681.57892	-396.60574	338.35159	679.26105	-340.40512	382.32645	673.82001	-345.47067	335.93256	672.63477	-377.12607	96.40049	649.12231	-364.53317	109.48907	564.19360	-445.46802	68.55173	608.24188	-232.77078	40.87888	557.88434	-207.12622	63.86307	603.43842	-249.87936	33.86724	672.60742
